# xmcd
#
# Track frame offsets:
#	150
#	17921
#	36317
#	53765
#	71586
#	89136
#	106515
#	124049
#	142711
#	160448
#	177354
#	194702
#	211808
#	230222
#
# Disc length: 3293 seconds
#
# Revision: 0
# Processed by: cddbd v1.5.2PL0 Copyright (c) Steve Scherf et al.
# Submitted via: EasyCDDAExtractor 15.3.0.1
#
DISCID=c90cdb0e
DTITLE=Eros Ramazzotti - Perfecto
DYEAR=2015
DGENRE=Latin
TTITLE0=Al Fin Del Mundo
TTITLE1=El Tiempo No Atiende A Razones
TTITLE2=Perfecto
TTITLE3=Girando
TTITLE4=Sueño N. 3
TTITLE5=Flor Nacida Ayer
TTITLE6=Vivela
TTITLE7=Aquel Verano
TTITLE8=El Amor Es Un Modo De Vivir
TTITLE9=El Viaje
TTITLE10=Los Celos
TTITLE11=Una Idea Especial
TTITLE12=Feliz Navidad (Si Tu Quieres)
TTITLE13=Tras Veinte Años
EXTD=
EXTT0=
EXTT1=
EXTT2=
EXTT3=
EXTT4=
EXTT5=
EXTT6=
EXTT7=
EXTT8=
EXTT9=
EXTT10=
EXTT11=
EXTT12=
EXTT13=
PLAYORDER=
